<?xml version="1.0" encoding="utf-8"?>
<!-- Generator: Adobe Illustrator 16.0.0, SVG Export Plug-In . SVG Version: 6.00 Build 0)  -->
<!DOCTYPE svg PUBLIC "-//W3C//DTD SVG 1.1//EN" "http://www.w3.org/Graphics/SVG/1.1/DTD/svg11.dtd">
<svg version="1.1" id="Capa_2" xmlns="http://www.w3.org/2000/svg" xmlns:xlink="http://www.w3.org/1999/xlink" x="0px" y="0px"
	 width="800px" height="400px" viewBox="0 0 800 400" enable-background="new 0 0 800 400" xml:space="preserve">
<g>
	<path fill="#76AE1D" d="M158.063,200.901h-5.234v-9.583h5.234V200.901z M174.145,189.073l-6.732-6.866v-0.001l-5.236-5.333v-0.006
		L155.445,170l-18.698,19.073h4.488v11.829h-3.015v2.238h34.451v-2.238h-3.015v-11.829H174.145z"/>
	<path fill="#76AE1D" d="M182.579,189.158c0,14.987-12.149,27.134-27.135,27.134s-27.134-12.146-27.134-27.134
		c0-14.984,12.148-27.134,27.134-27.134S182.579,174.174,182.579,189.158 M122.138,189.158c0,18.081,14.407,32.798,32.368,33.294
		v0.014h34.247v-34.247h-0.014c-0.498-17.961-15.213-32.367-33.293-32.367C137.051,155.852,122.138,170.763,122.138,189.158"/>
	<path fill="#9C421B" d="M544.84,229.069c0-7.689-6.315-9.611-15.104-11.053c-4.391-0.688-7.001-1.304-7.001-3.157
		c0-1.304,1.717-2.815,5.902-2.815c3.366,0,5.355,1.305,5.906,2.953h9.403c-1.167-6.658-7.211-11.052-15.31-11.052
		c-10.225,0-15.101,5.765-15.101,11.324c0,7.897,8.442,9.612,14.758,10.571c6.18,0.963,7.415,1.784,7.415,3.776
		c0,2.06-2.747,3.157-6.384,3.157c-2.677,0-6.315-1.098-7.552-4.117h-9.198c1.1,7.618,7.757,12.355,16.75,12.355
		C538.386,241.013,544.84,236.07,544.84,229.069 M507.915,204.838h-9.061v20.66c0,3.981-2.885,6.729-6.864,6.729
		c-5.975,0-6.658-4.737-6.658-6.729v-20.66h-9.063v20.66c0,3.981-2.813,6.729-6.864,6.729c-5.903,0-6.592-4.737-6.592-6.729v-20.66
		h-9.059v20.388c0,9.335,5.834,15.857,15.65,15.857c4.666,0,8.581-1.924,11.257-5.013c2.61,3.089,6.524,5.013,11.328,5.013
		c9.61,0,15.925-6.867,15.925-15.857V204.838z M430.868,232.708c-4.805,0-8.718-4.121-8.718-10.091
		c0-6.11,3.913-10.365,8.718-10.365c4.807,0,8.72,4.255,8.72,10.365C439.588,228.587,435.675,232.708,430.868,232.708
		 M430.868,203.945c-9.818,0-17.778,8.031-17.778,18.602s7.96,18.466,17.778,18.466c9.817,0,17.849-7.896,17.849-18.466
		S440.686,203.945,430.868,203.945 M395.407,225.362c0,9.679,5.491,15.855,15.856,14.761v-8.24
		c-4.461,0.274-6.729-1.509-6.729-6.521v-36.245h-9.128V225.362z M380.115,226.459c0,4.533-4.396,6.383-9.816,6.383
		c-3.64,0-5.973-1.37-5.973-3.362c0-2.607,2.745-3.568,7.207-4.05c3.707-0.41,6.659-1.028,8.582-2.263V226.459z M381.281,240.189
		h8.307c-0.479-1.374-1.029-4.052-1.029-5.766v-18.398c0-2.813-1.098-12.08-15.446-12.08c-9.266,0-15.718,5.012-16.612,11.738h9.062
		c0.824-3.021,4.531-4.463,7.758-4.463c4.05,0,6.452,1.51,6.452,3.364c0,2.883-4.188,3.57-10.091,4.118
		c-7.826,0.685-14.484,2.747-14.484,10.71c0,7.688,6.864,11.462,14.347,11.462c4.943,0,8.514-1.509,10.846-3.981
		C380.595,238.197,380.868,239.296,381.281,240.189 M341.296,222.617c0,5.491-4.051,9.953-9.062,9.953s-9.062-4.327-9.062-9.953
		c0-5.836,4.051-10.16,9.062-10.16S341.296,216.987,341.296,222.617 M350.358,222.547c0-10.227-7.483-18.602-18.123-18.602
		c-10.709,0-18.191,8.375-18.191,18.602c0,10.161,7.62,18.396,16.955,18.396c3.981,0,7.62-1.371,10.298-3.977v1.574
		c0,6.317-2.884,10.505-9.268,10.505c-2.472,0-6.11-1.099-7.277-3.914h-9.884c1.372,7.481,8.648,12.356,17.161,12.356
		c11.326,0,18.329-7.344,18.329-19.082V222.547z M277.359,219.734v20.455h9.062v-20.663c0-3.98,2.883-6.726,6.865-6.726
		c5.973,0,6.659,4.737,6.659,6.726v20.663h9.062v-20.455c0-9.269-5.836-15.789-15.72-15.789
		C283.675,203.945,277.359,210.741,277.359,219.734 M270.783,225.226v-20.388h-9.062v20.66c0,3.915-2.882,6.729-6.864,6.729
		c-5.971,0-6.659-4.737-6.659-6.729v-20.66h-9.061v20.388c0,9.266,5.835,15.787,15.72,15.787
		C264.468,241.013,270.783,234.216,270.783,225.226 M225.141,222.617c0,5.626-4.049,9.953-9.061,9.953
		c-5.011,0-9.061-4.462-9.061-9.953c0-5.63,4.05-10.16,9.061-10.16C221.092,212.457,225.141,216.781,225.141,222.617
		 M234.203,222.547c0-10.159-7.551-18.465-16.887-18.465c-4.118,0-7.618,1.305-10.296,4.119v-19.084h-9.128v33.43
		c0,10.228,7.481,18.466,18.189,18.466C226.719,241.013,234.203,232.774,234.203,222.547"/>
	<path fill="#76AE1D" d="M671.787,222.411c0,7.481-5.351,13.246-11.876,13.246c-6.453,0-11.943-5.902-11.943-13.246
		c0-7.276,5.424-13.111,11.943-13.111C666.437,209.3,671.787,215.064,671.787,222.411 M677.624,222.411
		c0-10.572-7.829-18.466-17.643-18.466c-4.874,0-9.336,2.334-12.22,5.97v-20.798h-5.627v33.294c0,10.503,7.757,18.602,17.776,18.602
		C669.66,241.013,677.624,233.05,677.624,222.411 M629.09,226.256c0,5.283-3.502,9.129-8.923,9.129
		c-5.493,0-8.993-3.846-8.993-9.129v-21.418h-5.766v21.418c0,8.923,6.454,14.757,14.759,14.757c8.306,0,14.761-5.834,14.761-14.757
		v-21.418h-5.838V226.256z M587.714,227.284c0,8.991,5.694,13.867,14.002,12.905v-5.493c-4.394,0.205-8.237-1.369-8.237-7.619
		v-37.96h-5.765V227.284z M582.448,229.207h-6.246c-1.922,3.843-5.561,6.247-10.229,6.247c-6.522,0-11.876-5.77-11.876-12.907
		c0-7.137,5.354-13.042,11.876-13.042c4.598,0,8.239,2.402,10.229,6.248h6.246c-2.403-7.142-8.581-11.808-16.475-11.808
		c-9.746,0-17.711,8.375-17.711,18.602c0,10.228,7.965,18.466,17.711,18.466C573.867,241.013,580.117,236.343,582.448,229.207"/>
</g>
</svg>
