<?xml version="1.0" encoding="utf-8"?>
<!-- Generator: Adobe Illustrator 16.0.0, SVG Export Plug-In . SVG Version: 6.00 Build 0)  -->
<!DOCTYPE svg PUBLIC "-//W3C//DTD SVG 1.1//EN" "http://www.w3.org/Graphics/SVG/1.1/DTD/svg11.dtd">
<svg version="1.1" id="Capa_1" xmlns="http://www.w3.org/2000/svg" xmlns:xlink="http://www.w3.org/1999/xlink" x="0px" y="0px"
	 width="48px" height="48px" viewBox="0 0 48 48" enable-background="new 0 0 48 48" xml:space="preserve">
<g>
	<path fill="#706F6F" d="M24.058,0.457c-6.535,0-11.829,5.296-11.829,11.827c0,4.76,2.823,8.833,6.874,10.708l4.956,24.778
		l4.954-24.778c4.051-1.875,6.873-5.948,6.873-10.708C35.885,5.752,30.589,0.457,24.058,0.457z M24.058,18.2
		c-3.268,0-5.916-2.648-5.916-5.916c0-3.266,2.648-5.913,5.916-5.913c3.265,0,5.914,2.647,5.914,5.913
		C29.972,15.551,27.323,18.2,24.058,18.2z"/>
</g>
</svg>
